<?xml version="1.0" standalone="no"?>
<!DOCTYPE svg PUBLIC "-//W3C//DTD SVG 20010904//EN"
 "http://www.w3.org/TR/2001/REC-SVG-20010904/DTD/svg10.dtd">
<svg version="1.0" xmlns="http://www.w3.org/2000/svg"
 width="500.000000pt" height="500.000000pt" viewBox="0 0 500.000000 500.000000"
 preserveAspectRatio="xMidYMid meet">

<g transform="translate(0.000000,500.000000) scale(0.100000,-0.100000)"
fill="#000000" stroke="none">
<path d="M0 2500 l0 -2500 2500 0 2500 0 0 2500 0 2500 -2500 0 -2500 0 0
-2500z m2780 1976 c409 -69 773 -276 1038 -589 453 -535 539 -1301 215 -1917
-311 -593 -938 -955 -1603 -927 -764 32 -1413 555 -1605 1292 -61 234 -71 550
-25 770 122 583 518 1056 1067 1274 117 46 262 85 378 100 44 6 94 13 110 15
59 8 341 -3 425 -18z m-1115 -3621 c33 -52 63 -95 68 -95 4 0 7 43 7 95 l0 95
35 0 35 0 0 -160 0 -160 -37 0 c-37 0 -40 3 -103 103 l-65 102 -3 -102 -3
-103 -34 0 -35 0 0 160 0 160 38 0 c36 0 39 -2 97 -95z m285 -65 l0 -160 -40
0 -40 0 0 160 0 160 40 0 40 0 0 -160z m280 141 c19 -10 43 -32 53 -50 l19
-31 -45 0 c-27 0 -49 6 -57 15 -14 17 -72 20 -100 5 -23 -12 -44 -73 -35 -102
18 -60 92 -90 129 -53 9 9 33 15 61 15 l46 0 -17 -29 c-40 -68 -144 -91 -218
-48 -101 58 -103 216 -4 277 43 26 121 26 168 1z m340 -11 c0 -29 -2 -30 -45
-30 l-45 0 0 -130 0 -130 -35 0 -35 0 0 130 0 130 -45 0 c-43 0 -45 1 -45 30
l0 30 125 0 125 0 0 -30z m230 0 l0 -30 -61 0 -60 0 3 -32 c3 -32 4 -33 56
-36 51 -3 53 -4 50 -30 -3 -25 -7 -27 -55 -30 l-53 -3 0 -35 0 -34 60 0 60 0
0 -30 0 -30 -95 0 -95 0 0 160 0 160 95 0 95 0 0 -30z m280 15 c28 -15 70 -60
70 -76 0 -16 -87 -10 -100 6 -19 23 -80 19 -107 -7 -33 -31 -32 -100 2 -133
27 -28 71 -33 101 -10 18 14 104 21 104 9 0 -17 -44 -64 -74 -78 -77 -37 -163
-11 -213 63 -47 69 -18 183 57 222 42 23 120 25 160 4z m190 -50 l0 -65 65 0
65 0 0 65 0 65 35 0 35 0 0 -160 0 -160 -35 0 -35 0 0 65 0 65 -65 0 -65 0 0
-65 0 -65 -35 0 -35 0 0 160 0 160 35 0 35 0 0 -65z"/>
<path d="M2300 4354 c-155 -28 -210 -41 -299 -71 -601 -199 -1028 -732 -1091
-1364 -13 -128 0 -332 30 -477 122 -600 606 -1094 1202 -1226 174 -38 331 -51
474 -37 240 24 410 72 612 176 567 290 910 898 861 1522 -58 724 -554 1295
-1264 1455 -71 16 -134 21 -295 23 -113 2 -216 1 -230 -1z m337 -88 c338 -20
694 -193 953 -463 553 -576 553 -1490 2 -2065 -114 -118 -184 -175 -315 -256
-238 -146 -577 -235 -835 -218 -389 26 -713 164 -976 416 -281 270 -437 596
-465 978 -21 272 33 544 154 784 240 477 711 791 1240 827 55 4 111 6 125 5
14 -2 67 -5 117 -8z"/>
<path d="M2460 4078 c-52 -4 -139 -17 -192 -27 -53 -10 -95 -14 -92 -9 7 11
-34 10 -81 -3 -37 -11 -38 -12 -17 -20 18 -7 22 -14 17 -29 -8 -24 -9 -24 46
-5 24 9 95 25 159 36 94 17 143 20 270 17 198 -6 321 -36 438 -109 51 -32 115
-110 102 -123 -6 -6 -38 -1 -82 12 -114 34 -247 50 -453 57 -355 12 -588 -28
-681 -117 -48 -45 -53 -16 -7 40 21 26 56 64 78 84 22 20 36 40 33 44 -17 16
-103 -65 -161 -149 -40 -59 -43 -59 -12 2 26 53 27 54 7 73 -22 22 -28 18 -78
-47 -65 -85 -166 -465 -124 -465 5 0 20 -19 32 -42 18 -36 23 -63 26 -175 2
-75 0 -145 -6 -161 -8 -24 -6 -34 14 -60 21 -26 28 -29 52 -22 23 6 31 4 40
-11 18 -28 31 -23 48 17 32 76 26 330 -8 371 -15 18 -36 16 -41 -4 -3 -13 -6
-11 -12 10 -5 21 -3 31 8 40 27 20 29 59 7 101 -25 49 -20 56 12 17 14 -16 33
-31 43 -33 40 -7 82 -134 45 -132 -13 1 -16 -21 -16 -150 0 -126 -4 -161 -21
-214 -18 -54 -19 -63 -6 -71 23 -12 84 13 111 45 l24 29 -5 -49 c-6 -64 -26
-84 -68 -69 -26 10 -29 10 -19 -3 14 -16 67 -19 72 -4 8 23 54 -19 82 -76 18
-33 44 -75 59 -93 19 -23 25 -39 21 -56 -5 -19 0 -27 24 -39 17 -9 39 -34 51
-59 24 -50 44 -183 31 -207 -7 -10 -10 0 -10 35 0 69 -17 125 -48 157 -14 16
-29 28 -33 28 -4 0 -29 20 -55 45 -51 47 -87 57 -99 28 -3 -10 -5 -92 -4 -183
l3 -165 -35 -7 c-19 -4 -61 -12 -94 -19 -44 -8 -67 -19 -91 -43 -40 -40 -54
-98 -30 -125 19 -21 12 -30 -46 -54 -61 -26 -88 -59 -88 -110 0 -23 5 -48 11
-54 5 -5 45 -68 88 -139 99 -163 137 -194 243 -202 38 -3 102 1 142 7 156 27
397 85 433 105 56 32 86 81 80 134 -3 24 -12 51 -21 61 -16 18 -23 111 -8 111
4 -1 30 -21 57 -47 185 -170 254 -183 587 -110 191 41 221 54 237 98 22 64 15
95 -31 132 -24 18 -59 43 -79 55 -36 22 -36 22 -41 107 -4 52 -12 94 -21 109
-9 13 -45 38 -81 57 l-66 34 0 82 c0 45 -5 104 -11 132 l-10 49 43 41 43 41
-75 -35 c-102 -47 -294 -85 -470 -92 -122 -5 -145 -4 -208 16 -39 12 -74 25
-77 30 -3 5 11 15 30 21 21 7 32 16 28 23 -4 7 0 8 13 3 82 -32 237 -32 444
-1 178 26 257 56 330 121 86 78 112 195 114 509 1 162 -2 197 -17 237 -24 61
-80 110 -155 134 -115 38 -606 17 -620 -26 -2 -5 -14 -10 -26 -10 -33 0 -111
-54 -145 -100 -59 -82 -66 -121 -66 -375 0 -126 4 -260 8 -296 l8 -66 -39 0
c-33 0 -42 4 -52 26 -19 41 -33 272 -27 451 6 176 20 243 63 312 22 34 22 38
7 38 -10 0 -31 -9 -48 -20 -32 -21 -80 -26 -90 -10 -12 19 6 70 34 98 45 44
218 86 337 81 27 -1 99 3 159 9 61 7 160 12 220 12 324 -1 446 -73 489 -288
10 -50 14 -58 15 -33 2 76 -44 268 -88 363 -34 73 -116 172 -137 164 -19 -7
-72 25 -78 46 -5 23 -69 49 -181 76 -173 41 -256 47 -435 30z m260 -227 c0
-14 -70 -32 -144 -36 -33 -2 -89 -10 -123 -18 -34 -8 -75 -12 -94 -8 l-32 6
26 18 c28 18 96 35 162 39 127 9 205 9 205 -1z m30 5 c0 -3 -4 -8 -10 -11 -5
-3 -10 -1 -10 4 0 6 5 11 10 11 6 0 10 -2 10 -4z m418 -106 c45 -20 55 -40 22
-40 -29 0 -102 39 -95 50 9 14 24 12 73 -10z m29 -186 c-3 -3 -12 -4 -19 -1
-8 3 -5 6 6 6 11 1 17 -2 13 -5z m-1259 -99 c37 -77 62 -228 61 -372 -1 -140
0 -144 -35 82 -9 55 -29 140 -45 188 -46 139 -33 209 19 102z m-108 35 c0 -5
-5 -10 -11 -10 -5 0 -7 5 -4 10 3 6 8 10 11 10 2 0 4 -4 4 -10z m1264 -262
c19 -26 21 -133 5 -191 -13 -49 -39 -64 -124 -72 -104 -10 -110 -2 -110 122 1
145 15 161 142 162 63 1 74 -2 87 -21z m-360 -20 c12 -17 16 -48 16 -120 0
-86 -2 -100 -23 -123 -19 -23 -34 -28 -97 -35 -127 -14 -143 4 -138 151 2 76
7 102 20 115 19 19 75 31 155 33 43 1 54 -3 67 -21z m114 -790 c7 -7 12 -31
12 -54 0 -40 -2 -42 -35 -48 -45 -9 -55 -2 -55 37 0 58 10 77 39 77 15 0 32
-5 39 -12z m-888 -468 c0 -5 -14 -10 -31 -10 -17 0 -28 4 -24 10 3 6 17 10 31
10 13 0 24 -4 24 -10z m-170 -40 c0 -5 -2 -10 -4 -10 -3 0 -8 5 -11 10 -3 6
-1 10 4 10 6 0 11 -4 11 -10z"/>
<path d="M3370 3248 c0 -47 -3 -107 -6 -134 -5 -40 -4 -47 6 -37 18 17 27 230
11 246 -8 8 -11 -11 -11 -75z"/>
<path d="M1630 3173 c0 -28 7 -66 15 -84 16 -34 16 -34 12 38 -3 87 -27 127
-27 46z"/>
<path d="M1730 2856 c0 -2 7 -7 16 -10 8 -3 12 -2 9 4 -6 10 -25 14 -25 6z"/>
</g>
</svg>
